<svg xmlns="http://www.w3.org/2000/svg" width="139.303mm" height="101.376mm" viewBox="0 0 394.874 287.365">
  <g>
    <path d="M343.772,207.105h5.017v-55.78h.093l39.767,55.78h6.225V147.619h-5.017v52.615h-.186l-37.444-52.615h-8.455ZM308,203.308c-13.658,0-25.179-9.854-25.179-26.217,0-16,11.521-25.675,25.179-25.675s25.18,9.673,25.18,25.675c0,16.363-11.521,26.217-25.18,26.217m0,4.7c16.818,0,30.476-11.662,30.476-30.918,0-18.9-13.658-30.376-30.476-30.376s-30.382,11.481-30.382,30.376c0,19.256,13.565,30.918,30.382,30.918m-41.438-.9h5.3V147.619h-5.3Zm-31.311,0h5.3V152.229H261.64v-4.61H214.254v4.61h21Zm-51.937.9c15.424,0,24.808-8.769,24.808-22.149V147.619h-4.739V185.86c0,10.758-7.526,17.448-19.883,17.448-12.45,0-19.976-6.69-19.976-17.448V147.619h-5.2V185.86c0,13.38,9.477,22.149,24.993,22.149m-65.132-.9h38.931v-4.7H123.386V147.619h-5.2Zm-35.77-3.8c-13.659,0-25.18-9.854-25.18-26.217,0-16,11.521-25.675,25.18-25.675s25.179,9.673,25.179,25.675c0,16.363-11.521,26.217-25.179,26.217m0,4.7c16.817,0,30.475-11.662,30.475-30.918,0-18.9-13.658-30.376-30.475-30.376S52.03,158.2,52.03,177.091c0,19.256,13.565,30.918,30.383,30.918m-58.349,0c19.326,0,24.715-8.679,24.715-17.448,0-5.334-2.509-9.312-6.6-11.21-4-1.989-10.685-2.984-16.631-3.8-5.111-.724-12.822-1.808-15.888-3.436-2.788-1.537-4.46-4.068-4.46-8.227,0-7.5,7.34-12.747,18.582-12.747,12.729,0,17.932,5.786,17.932,17.177h4.925c0-13.832-5.854-21.606-22.95-21.606C9.291,146.715,0,154.037,0,164.253c0,5.424,2.415,9.221,5.853,11.3,3.438,1.989,10.778,3.435,16.539,4.068,5.389.723,12.45,1.627,15.888,3.074s5.3,3.977,5.3,8.136c0,6.509-4.088,12.747-19.512,12.747-15.052,0-18.954-7.684-18.954-16.725H.185c0,10.578,4.367,21.155,23.879,21.155" fill="#fff"/>
    <path d="M200.479,287.365a43.65,43.65,0,0,1-27.021-9.321,46.922,46.922,0,0,1-14.923-21.469,45.771,45.771,0,0,1-5.362-9.825,36.607,36.607,0,0,1-5.7-9.086,26.69,26.69,0,0,1-6.465-9.823c-.027-.074-.054-.15-.08-.224a39.278,39.278,0,0,1-4.873-5.169l-.038-.076q-.206-.849-.369-1.686a34.317,34.317,0,0,1-4.557-3.664l-.052-.082c-.311-.945-.57-1.879-.792-2.808a30.636,30.636,0,0,1-4.12-2.54l-.042-.03-.022-.047a32.439,32.439,0,0,1-1.416-3.68,28.617,28.617,0,0,1-3.485-1.677l-.066-.06a31,31,0,0,1-2.292-3.987,20.5,20.5,0,0,1-2.633-1.405,18.311,18.311,0,0,1-5.065-5.47c-10.514-3.652-18.192-14.086-20.564-23.8q-.345-.472-.67-.944-.534-.436-1.048-.876-.736-.418-1.451-.846-.926-.4-1.834-.813-1.119-.387-2.225-.79-1.211-.347-2.411-.71l-.088-.026-1.441-.358c-.427-.108-.855-.219-1.281-.332-.083-.017-.166-.036-.249-.054q-1.237-.262-2.472-.562c-6.556-1.265-13.681-3.351-18.208-8.639-5.087-5.942-4.96-13.356.39-22.666A211.188,211.188,0,0,0,66.844,114.4C72.677,101.127,79.288,86.09,89,75.533c9.792-10.641,21.405-15.284,35.367-14.1-2.18-16.99-2.313-34.782,4.859-39.961,2.272-1.642,5.159-1.9,8.631-.77a9.676,9.676,0,0,1,3.525-1.961,12.232,12.232,0,0,1,6.564.022,11.828,11.828,0,0,1,3.339-1.684,14.115,14.115,0,0,1,6.9-.292,14.34,14.34,0,0,1,3.016-1.425,16.254,16.254,0,0,1,7.382-.613,18.393,18.393,0,0,1,10.525-2.066,21.052,21.052,0,0,1,10.838-2.254A24.667,24.667,0,0,1,200.927,8.11a28.977,28.977,0,0,1,11.238-2.449,34.363,34.363,0,0,1,11.617-2.627A42.376,42.376,0,0,1,238.935.006c.217,0,.437-.006.657-.006,15.608,0,36.75,9.759,45.678,26.4,7.477,13.942,4.2,27.5,1.026,40.608-2.454,10.145-4.816,19.91-2.431,29.591.482.647.936,1.305,1.355,1.977a41.084,41.084,0,0,1,6,7.215,39.587,39.587,0,0,1,5.953,7.133,38.777,38.777,0,0,1,5.938,7.1A38.8,38.8,0,0,1,309,127.055a33.183,33.183,0,0,1,7.44,9.9c5.943,13.269-6.064,22.268-9.885,24.71-7.021,4.488-14.146,6.467-21.223,5.9a22.466,22.466,0,0,1-5.45.466,22.725,22.725,0,0,1-6.156.551l-.158-.009a19.137,19.137,0,0,1-4.184.7q-.986.057-1.971.029a16.821,16.821,0,0,1-2.361.664,27.064,27.064,0,0,1-3.865.471c-.152.073-.3.142-.457.209a33.919,33.919,0,0,1-5.73,1.826,43.7,43.7,0,0,1-5.066,3.372,19.564,19.564,0,0,1-2.077,2.79c-.49.544-1.043,1.17-1.646,1.869-.076.258-.155.515-.238.774-.565,1.763-1.251,3.578-2.023,5.422a54.711,54.711,0,0,1-6.575,22.782,49.173,49.173,0,0,1-12.641,14.924c1.488,1.62,3.076,3.253,4.621,4.842,6.723,6.913,13.675,14.062,14.2,21.695.33,4.807-2.083,8.529-4.8,12.231-6.195,8.436-13.78,17.794-25.423,22.056A37.766,37.766,0,0,1,200.479,287.365ZM159.373,257.72a46.3,46.3,0,0,0,14.333,20.009c12.892,10.191,29.119,10.923,39.481,7.128,11.539-4.224,19.078-13.529,25.239-21.918,2.672-3.64,5.046-7.294,4.724-11.966-.513-7.488-7.413-14.583-14.086-21.445-1.555-1.6-3.152-3.241-4.651-4.873-.094.074-.19.148-.285.22,1.2,1.455,2.479,2.917,3.724,4.342,4.969,5.688,10.106,11.569,11.149,17.689a13.884,13.884,0,0,1,.2,2.159c.057,4.387-2.431,7.833-4.985,10.989-6.768,8.425-13.728,16.235-24.4,19.212-11.571,3.228-26.448-.614-38.828-10.027A59.483,59.483,0,0,1,159.373,257.72Zm-.48-1.33a58.437,58.437,0,0,0,12.343,12.531c12.283,9.339,27.027,13.155,38.478,9.96,10.556-2.945,17.468-10.7,24.195-19.078,2.508-3.1,4.952-6.479,4.9-10.732a13.47,13.47,0,0,0-.2-2.1c-1.023-6.008-6.123-11.847-11.055-17.493-1.251-1.431-2.535-2.9-3.742-4.363l-.295.221c.913,1.277,1.882,2.558,2.826,3.808,3.935,5.207,8,10.591,8.481,16.118a13.563,13.563,0,0,1,.039,1.924c-.221,3.925-2.674,6.964-5.167,9.742-5.752,6.4-12.909,14.377-23.375,16.367-13.245,2.519-27.857-5.6-37.786-12.862a104.268,104.268,0,0,1-11.091-9.127A50.175,50.175,0,0,0,158.893,256.39Zm-1.609-5.793a101.853,101.853,0,0,0,11.483,9.514c9.866,7.213,24.374,15.282,37.476,12.793,10.333-1.966,17.441-9.882,23.152-16.242,2.446-2.724,4.851-5.7,5.065-9.5a13.2,13.2,0,0,0-.037-1.867c-.467-5.411-4.5-10.749-8.4-15.911-.945-1.25-1.915-2.533-2.83-3.813-.1.074-.205.15-.308.223.629,1.081,1.292,2.162,1.94,3.217,2.91,4.744,5.921,9.649,5.817,14.613a13.554,13.554,0,0,1-.127,1.688c-.507,3.484-3.028,6.21-5.351,8.494-6,5.891-12.8,12.568-22.349,13.519-11.662,1.156-23.538-6.423-36.743-15.7-1.483-1.034-2.927-2.023-4.327-2.981-1.853-1.269-3.634-2.487-5.324-3.688A49.078,49.078,0,0,0,157.284,250.6Zm-.911-6.16c1.769,1.263,3.642,2.544,5.6,3.882q2.1,1.437,4.33,2.983c13.14,9.23,24.961,16.782,36.474,15.628,9.413-.937,16.158-7.562,22.109-13.407,2.277-2.237,4.746-4.905,5.235-8.265a12.98,12.98,0,0,0,.123-1.639c.1-4.847-2.878-9.7-5.759-14.4-.642-1.046-1.3-2.119-1.926-3.194l-.319.223c.355.851.726,1.7,1.089,2.525,1.978,4.511,3.846,8.772,3.131,13.219-.074.46-.162.953-.292,1.449-.768,2.905-3.114,5.2-5.535,7.243-5.888,4.975-12.562,10.614-21.323,10.669h-.136c-9.665,0-18.557-6.4-27.969-13.182-2.453-1.767-4.989-3.594-7.594-5.35-2.638-1.763-5.07-3.293-7.41-4.741-.044,1.981,0,3.985.149,6.015Zm-.164-6.817c2.351,1.455,4.921,3.068,7.621,4.873,2.611,1.76,5.149,3.589,7.6,5.358,9.357,6.739,18.2,13.107,27.736,13.107h.132c8.617-.054,14.946-5.4,21.068-10.574,2.208-1.866,4.63-4.1,5.406-7.039.126-.48.211-.962.284-1.412.7-4.33-1.149-8.538-3.1-12.994-.353-.8-.714-1.627-1.06-2.455-.108.074-.218.148-.327.221.114.546.233,1.087.35,1.625.9,4.133,1.756,8.036.343,12.043l-.035.1c-.128.36-.26.734-.422,1.11-1.071,2.49-3.489,4.423-5.714,5.985-5.716,4.012-12.2,8.567-20.295,7.816-8.457-.775-15.508-6.5-22.973-12.57a133.928,133.928,0,0,0-11.682-8.794c-1.543-.99-3.046-1.877-4.509-2.688C156.425,233.4,156.27,235.5,156.209,237.62ZM154,247.714a45.355,45.355,0,0,0,4.093,7.514q-.687-2.183-1.173-4.43Q155.343,249.246,154,247.714ZM156.68,230.9c1.516.836,3.077,1.755,4.681,2.784a134.369,134.369,0,0,1,11.717,8.82c7.416,6.026,14.421,11.718,22.757,12.481,7.966.724,14.37-3.773,20.029-7.745,2.179-1.529,4.546-3.416,5.577-5.815.157-.364.286-.732.412-1.086l.036-.1c1.374-3.9.533-7.749-.358-11.824-.106-.488-.214-.979-.318-1.474-.107.071-.215.141-.322.21l-.011.182c-.241,3.96-.468,7.7-2.816,11.421l-.165.264c-.144.232-.292.469-.454.708-1.411,2.08-3.889,3.617-5.89,4.722-6.153,3.4-12.256,6.339-19.265,4.961-7.769-1.525-13.7-7.108-19.977-13.019-4.171-3.926-8.483-7.986-13.631-11.175-.4-.245-.8-.483-1.191-.71C157.191,226.613,156.907,228.744,156.68,230.9Zm-3.159,15.643q1.473,1.761,3.249,3.543a49.363,49.363,0,0,1-.78-5.432c-1.409-1.008-2.754-2.008-4.023-3.016A39.356,39.356,0,0,0,153.521,246.543Zm4.031-22.465q.665.382,1.339.8c5.185,3.211,9.511,7.284,13.7,11.224,6.235,5.87,12.124,11.414,19.781,12.918,6.873,1.354,12.908-1.557,18.993-4.918,1.962-1.085,4.389-2.588,5.753-4.6.159-.233.3-.467.445-.694l.167-.266c2.272-3.6,2.5-7.092,2.748-11.123l-.276.173a25.469,25.469,0,0,1-6.349,9.545c-.107.1-.214.2-.323.3-.148.142-.3.286-.456.429a19.644,19.644,0,0,1-6.06,3.458c-5.315,2.111-11.546,4.187-18.229,2.106-7.311-2.279-12.478-7.939-17.948-13.931-3.76-4.119-7.632-8.36-12.384-11.658-.185,1.343-.38,2.676-.572,3.991Q157.714,222.953,157.552,224.078Zm-9.3,14.349a36.1,36.1,0,0,0,4.484,7.149,39.177,39.177,0,0,1-1.275-4.346C150.324,240.311,149.251,239.381,148.25,238.427Zm3.568,2.578c1.3,1.047,2.678,2.082,4.13,3.126v0a61.744,61.744,0,0,1-.145-6.288l-1.456-.9c-1.172-.722-2.306-1.421-3.4-2.111.079,1.261.214,2.529.417,3.806Q151.549,239.823,151.818,241.005ZM158.51,217.4c4.864,3.338,8.8,7.649,12.619,11.833,5.432,5.952,10.563,11.573,17.771,13.818,6.558,2.044,12.71-.01,17.962-2.094a19.3,19.3,0,0,0,5.938-3.382c.155-.141.3-.284.45-.423.11-.1.219-.208.327-.308a24.52,24.52,0,0,0,6.029-8.889l-.091.055a36.331,36.331,0,0,1-9.891,7.5l-.377.2q-.278.15-.565.3a26.963,26.963,0,0,1-6.223,2.2c-4.714,1.1-10.928,2.011-17.187-.756-6.916-3.053-11.51-8.885-16.375-15.059A79.717,79.717,0,0,0,159.2,211.52C159.017,213.488,158.774,215.454,158.51,217.4Zm-10.7,20.035c1.082,1.083,2.255,2.13,3.511,3.165q-.2-.949-.354-1.9a40.742,40.742,0,0,1-.437-4.13c-1.576-.994-3.076-1.97-4.506-2.969q.151.784.35,1.572A29.816,29.816,0,0,0,147.808,237.434Zm11.44-26.406a78.516,78.516,0,0,1,9.964,11.116c4.832,6.133,9.4,11.927,16.221,14.941,6.152,2.718,12.281,1.818,16.936.732a26.535,26.535,0,0,0,6.128-2.164c.191-.1.378-.2.562-.3l.378-.2a35.882,35.882,0,0,0,8.792-6.4,52.819,52.819,0,0,1-12.831,5.109c-9.072,2.318-17.025,1.512-23.635-2.4-6.485-3.832-10.806-10.148-14.985-16.255A92.423,92.423,0,0,0,159.4,205.4,47.832,47.832,0,0,1,159.248,211.028Zm-8.332,23.311c1.171.737,2.383,1.485,3.641,2.261q.618.381,1.259.778c.068-2.111.226-4.195.438-6.255-1.831-1-3.6-1.886-5.292-2.694A53.136,53.136,0,0,0,150.916,234.339Zm-9.361-6.174a25.941,25.941,0,0,0,5.513,8.5,30.043,30.043,0,0,1-1.083-3.4q-.255-1-.43-2C144.155,230.273,142.825,229.253,141.555,228.165Zm17.825-23.388a89.142,89.142,0,0,1,7.728,10.21c4.155,6.072,8.45,12.349,14.858,16.137,6.515,3.852,14.366,4.644,23.334,2.355a52.282,52.282,0,0,0,13.962-5.786c.143-.152.285-.306.428-.463s.282-.311.422-.469q.237-.575.481-1.171.047-.621.115-1.353c-.075-.488-.145-.987-.207-1.5q-.278-.861-.521-1.735-.4-.912-.759-1.837-.444-.851-.855-1.715-.69-1.158-1.318-2.335c-9.483-14.987-11.642-32.325-4.772-43.937,5.037-8.514,14.763-13.681,26.2-14.78q-.357-.98-.714-1.948c-2.906-7.891-5.909-16.051-4.489-23.046,1.533-7.55,7.838-12.075,13.936-16.451,1.751-1.258,3.562-2.558,5.219-3.9,9.509-7.722,17.146-21.789,10.061-38.113q-.541-1.251-1.2-2.489a55.937,55.937,0,0,1-3.571-4.954c-1.968-2.259-3.778-4.476-5.536-6.627q-.7-.862-1.4-1.707a69.4,69.4,0,0,0-25.876-14.969,78.265,78.265,0,0,0-30.9-2.99,96.85,96.85,0,0,1-6.781,12.706c-4.023,6.1-12.721,15.975-27.1,16.555a29.368,29.368,0,0,1-5.562.969,27.833,27.833,0,0,1-4.047,1.073q-.7.13-1.4.227-.935.431-1.9.793a31.188,31.188,0,0,1-3.334,1.038,37.5,37.5,0,0,1-4.126,2.355,16.746,16.746,0,0,1-4.822,4.955,17.884,17.884,0,0,1-2.124,4.019c-.268,2.286-.519,3.954-1.151,4.794q-.053.371-.1.748c.01.092.019.182.028.271.116,1.144.207,2.046.237,2.621a35.316,35.316,0,0,0,.491,3.84c.066.4.132.8.194,1.2,1.367,3.464,2.731,7.029,2.9,10.4a16.936,16.936,0,0,1-2.562,9.383c-4.465,7.778-12.234,13.027-19.746,18.1-1.465.99-2.98,2.013-4.442,3.037-8.432,5.907-17.213,13.516-18.4,25.157a20.608,20.608,0,0,0-.03,3.674,285.935,285.935,0,0,0,30.711,2.545l.848.023c6.664.176,13.554.359,20.2,3.823,6.531,3.4,11.537,9.25,14.476,16.911A46.026,46.026,0,0,1,159.38,204.777Zm-13.46,26.259c1.452,1.026,2.977,2.026,4.583,3.042a54.21,54.21,0,0,1,.069-5.834c-1.351-.64-2.657-1.233-3.913-1.805l-1.191-.543A33.2,33.2,0,0,0,145.92,231.036Zm-4.65-3.65a52.757,52.757,0,0,0,4.191,3.322,34.106,34.106,0,0,1-.4-5c-1.64-.752-3.219-1.493-4.743-2.282A21.774,21.774,0,0,0,141.27,227.386Zm9.719.613c1.7.808,3.471,1.689,5.311,2.692.23-2.158.517-4.291.818-6.4a51.365,51.365,0,0,0-5.476-2.687C151.371,223.712,151.131,225.844,150.989,228Zm-5.525-2.544,1.361.62c1.213.552,2.473,1.125,3.775,1.739.147-2.147.389-4.27.659-6.37-1.868-.768-3.686-1.4-5.473-1.963A58.975,58.975,0,0,0,145.464,225.455Zm75.041,1.466-.007.007.006,0Zm-84.11-4.685a38.609,38.609,0,0,0,4.282,4.615,22.53,22.53,0,0,1-.781-3.644c-1.3-.685-2.553-1.408-3.778-2.209Q136.246,221.615,136.4,222.236Zm84.541,4.19-.014.228.2-.133c-.017-.085-.035-.17-.052-.255Zm.467-.551q.041.2.081.405c.086-.057.173-.116.259-.175-.06-.142-.118-.285-.175-.427Zm.455-.55c.073.183.146.365.221.549l.275-.192c-.11-.19-.217-.379-.323-.569Zm.443-.548q.188.336.381.671c.092-.066.185-.133.276-.2-.163-.23-.324-.461-.483-.69Zm-1.054.265c.019.108.039.218.059.325l.093-.113c-.039-.1-.078-.2-.116-.3Zm-80.99-2.1c1.543.809,3.142,1.564,4.806,2.328,0-1.987.14-3.959.333-5.913-1.339-.417-2.661-.8-3.972-1.18q-.681-.2-1.355-.4A32.4,32.4,0,0,0,140.257,222.943Zm82.477,1.286q.268.39.547.783l.274-.2q-.33-.4-.648-.8Zm-1.231.178c.061.164.123.327.187.491l.131-.162c-.087-.158-.174-.316-.259-.475Zm1.655-.727q.351.442.716.886c.089-.069.179-.137.268-.207-.275-.3-.546-.6-.813-.9Zm-1.4.095q.165.312.334.623l.147-.186c-.138-.2-.275-.408-.41-.613Zm1.818-.645.023.026q.423.478.86.956a48.765,48.765,0,0,0,12.563-14.821,54.124,54.124,0,0,0,6.433-21.436c-2.446,5.629-5.613,11.464-8.5,16.791A153.525,153.525,0,0,1,223.575,223.13Zm-1.566.016q.242.371.488.736l.154-.2c-.19-.242-.38-.486-.565-.73ZM151.7,221.191a52.149,52.149,0,0,1,5.484,2.675c.1-.7.2-1.394.3-2.089.2-1.379.406-2.777.6-4.186q-.908-.615-1.859-1.181a37.306,37.306,0,0,0-3.644-1.886c-.168,1.371-.352,2.731-.534,4.071Q151.867,219.886,151.7,221.191Zm69.511,2.391.092.263.019-.048Zm1.053-1.061c.212.28.425.558.643.835.052-.069.105-.137.157-.207-.243-.276-.481-.552-.718-.832Zm-1,.283c.083.167.168.336.253.5l.047-.118c-.1-.152-.195-.3-.292-.458Zm1.248-.908c.262.312.527.62.8.927A153.322,153.322,0,0,0,234.6,204.454c3.074-5.662,6.46-11.9,8.954-17.845.068-1.018.111-2.046.128-3.077a118.925,118.925,0,0,0-11.522,16.955,191.826,191.826,0,0,0-9.649,21.409Zm-1.164.2c.131.213.264.424.4.636l.06-.151c-.149-.2-.3-.4-.445-.6Zm-85.337-1.652c1.24.829,2.514,1.575,3.829,2.277a34.3,34.3,0,0,1-.159-5.053c-1.439-.425-2.856-.859-4.254-1.35C135.557,217.686,135.743,219.056,136.008,220.445Zm85.425.956c.18.25.361.5.545.745.024-.058.047-.117.071-.176q-.3-.36-.595-.722Zm.1-.7c.227.283.456.563.689.844a190.417,190.417,0,0,1,9.589-21.254,119.705,119.705,0,0,1,11.88-17.4q.007-1.4-.047-2.814a54.693,54.693,0,0,0-14.274,16.254A71.357,71.357,0,0,0,221.529,220.7Zm-.7.544c.059.1.119.2.178.3l0-.042Zm-75.006-2.174c1.79.564,3.613,1.193,5.485,1.959.109-.835.222-1.665.334-2.492.186-1.378.376-2.776.548-4.186a39.073,39.073,0,0,0-5.612-1.939c-.109,1.029-.231,2.052-.35,3.062C146.091,216.668,145.95,217.868,145.827,219.074Zm74.839,1.234c.141.206.285.412.429.617l.014-.106q-.225-.282-.447-.567Zm-.05-.77c.189.246.378.491.571.735a71.525,71.525,0,0,1,7.83-24.138,55.153,55.153,0,0,1,14.6-16.546q-.076-1.62-.236-3.253a40.248,40.248,0,0,0-16.806,15.837C221.513,201.108,220.14,211.312,220.616,219.538Zm-89.214-2.77a33.867,33.867,0,0,0,4.14,3.361c-.241-1.332-.411-2.647-.534-3.957a40.908,40.908,0,0,1-4.293-1.8C130.913,215.163,131.139,215.962,131.4,216.768Zm88.337,1.595c.148.2.3.406.448.607-.381-8.186,1.057-18.2,6.041-26.994a40.676,40.676,0,0,1,17.111-16.066q-.175-1.687-.443-3.389a35.43,35.43,0,0,0-19.112,15.494C218.88,196.576,217.469,207.893,219.739,218.363Zm-79.654-.992c.481.142.964.281,1.45.422,1.288.374,2.586.751,3.9,1.159.121-1.181.26-2.355.4-3.522.121-1.028.244-2.069.356-3.117-1.906-.487-3.781-.836-5.632-1.132-.031.361-.064.721-.1,1.08C140.308,213.991,140.156,215.69,140.085,217.371Zm78.861-.119c.074.1.146.209.22.313-2.025-10.315-.543-21.344,4.271-29.75a35.856,35.856,0,0,1,19.395-15.694q-.278-1.713-.648-3.436c-8.994,2.185-16.8,7.589-21.19,15.171C215.643,193.109,215.008,205.771,218.946,217.252Zm-83.563-1.371c1.416.5,2.852.944,4.311,1.375.071-1.689.222-3.369.371-5.031q.05-.55.1-1.107c-1.006-.156-2.006-.3-3-.44-.7-.1-1.389-.2-2.077-.3C135.143,212.231,135.219,214.054,135.383,215.881Zm17.243-1.773a37.526,37.526,0,0,1,3.8,1.958q.879.52,1.717,1.083c.266-1.97.509-3.961.691-5.951a32.409,32.409,0,0,0-5.074-3.594c-.191-.107-.381-.211-.572-.313q-.018.851-.068,1.672C153.006,210.685,152.83,212.4,152.626,214.108ZM241.237,164.8c-9.886,1.725-18.434,7.015-23.034,14.9-5.72,9.808-5.577,23.707-.134,36.142-3.407-11.17-2.589-23.247,2.578-32.185,4.446-7.678,12.35-13.15,21.452-15.36Q241.715,166.551,241.237,164.8ZM130.593,213.858a39.092,39.092,0,0,0,4.375,1.873c-.156-1.8-.229-3.59-.284-5.415-1.652-.251-3.28-.529-4.9-.9C130,210.9,130.246,212.375,130.593,213.858Zm16.032-1.845a39.512,39.512,0,0,1,5.619,1.927c.2-1.659.366-3.331.473-5q.055-.909.072-1.853a25.567,25.567,0,0,0-5.778-2.1q.012.892-.013,1.762C146.95,208.505,146.805,210.269,146.625,212.013Zm93.39-51.237c-10.665,1.323-19.751,6.51-24.6,14.765-6.064,10.32-5.312,24.914,1.354,38.162-4.548-11.939-4.34-24.892,1.092-34.206,4.654-7.973,13.291-13.329,23.273-15.083q-.414-1.482-.9-2.97Q240.126,161.113,240.015,160.776ZM126.4,211.3a30.056,30.056,0,0,0,3.723,2.318c-.322-1.436-.559-2.862-.756-4.3a33.943,33.943,0,0,1-4.243-1.3A31.569,31.569,0,0,0,126.4,211.3Zm14.19-.519c1.853.295,3.73.644,5.639,1.13.177-1.716.318-3.45.366-5.18q.026-.906.01-1.84a35.023,35.023,0,0,0-5.735-.73c0,.12.006.24.008.36A61.991,61.991,0,0,1,140.594,210.781Zm-5.52-.81q1.066.159,2.146.31c.987.141,1.979.282,2.978.438a61.639,61.639,0,0,0,.284-6.193c0-.127,0-.255-.008-.383-1.882-.081-3.749-.057-5.6-.024.079,1.545.121,3.072.161,4.564C135.05,209.114,135.061,209.543,135.074,209.971Zm18.119-3.128c.253.133.508.27.761.414a32.581,32.581,0,0,1,4.92,3.452,51.471,51.471,0,0,0,.162-5.714,31.486,31.486,0,0,0-6.333-5.372A46.306,46.306,0,0,1,153.193,206.843Zm85.424-50.057c-11.356,1.064-21.01,6.167-26,14.6-6.138,10.375-4.977,25.387,2.237,39.145-5.25-12.431-5.414-25.621.208-35.19,4.9-8.341,14.069-13.592,24.82-14.947C239.484,159.2,239.054,157.988,238.617,156.786ZM129.73,208.992c1.629.38,3.274.663,4.942.918-.012-.4-.023-.808-.034-1.217-.041-1.492-.083-3.021-.162-4.567l-.12,0c-1.757.032-3.487.065-5.192.017q.062.541.121,1.079C129.426,206.5,129.564,207.75,129.73,208.992Zm-4.76-1.459a33.492,33.492,0,0,0,4.344,1.36c-.158-1.2-.291-2.4-.427-3.625q-.063-.564-.127-1.136a34.288,34.288,0,0,1-4.847-.482C124.23,204.961,124.565,206.25,124.97,207.533Zm-3.571-1.7a28.062,28.062,0,0,0,3.092,1.507c-.382-1.246-.7-2.5-1.008-3.771a22.141,22.141,0,0,1-4.114-1.216A29.81,29.81,0,0,0,121.4,205.833Zm25.6-1.266a25.933,25.933,0,0,1,5.792,2.073,46.013,46.013,0,0,0-.536-7.29q-.474-.285-.964-.55a24.5,24.5,0,0,0-5.193-2.094A43.556,43.556,0,0,1,147,204.567Zm-6.141-.807a35.3,35.3,0,0,1,5.739.718,43.168,43.168,0,0,0-.931-7.886,28.182,28.182,0,0,0-5.9-.824A40.926,40.926,0,0,1,140.862,203.76Zm11.762-4.656a31.148,31.148,0,0,1,6.391,5.282c-.665-16.111-9.268-26.382-17.2-30.514-6.566-3.422-13.409-3.6-20.027-3.778l-.849-.023a286.3,286.3,0,0,1-30.665-2.537l.01.1a259.757,259.757,0,0,0,27.636,3.057l.848.046c5.989.325,12.183.66,18.18,3.879C146.521,179.75,151.125,189.659,152.624,199.1Zm-23.5,4.638c1.717.049,3.459.019,5.23-.013l.105,0q-.038-.7-.09-1.4a39.941,39.941,0,0,0-1.016-6.359c-1.143.093-2.292.205-3.452.317q-.981.1-1.969.189c.35,1.417.575,2.653.716,3.595C128.83,201.305,128.981,202.535,129.119,203.742Zm8.559-.054c.924,0,1.852.014,2.783.053a40.623,40.623,0,0,0-1.1-7.988,52.509,52.509,0,0,0-5.609.18,40.272,40.272,0,0,1,1.013,6.361c.034.477.064.951.091,1.426C135.791,203.7,136.733,203.688,137.678,203.688Zm-13.867-.465a33.6,33.6,0,0,0,4.9.506c-.136-1.185-.284-2.391-.467-3.605-.143-.945-.369-2.19-.724-3.618-1.742.155-3.5.282-5.278.314q.147.515.275,1.01c.333,1.276.625,2.536.908,3.755C123.556,202.136,123.682,202.681,123.811,203.223ZM119.1,201.8a21.481,21.481,0,0,0,4.282,1.336c-.115-.485-.227-.972-.341-1.464-.282-1.216-.573-2.474-.9-3.743-.095-.361-.2-.73-.3-1.106a37.7,37.7,0,0,1-5.026-.27q.2.48.4.956C117.824,198.98,118.423,200.408,119.1,201.8Zm-7.357-6.355a16.848,16.848,0,0,0,4.642,4.92,20.353,20.353,0,0,0,2.15,1.179c-.6-1.266-1.139-2.557-1.694-3.881-.163-.388-.327-.778-.494-1.173A27.974,27.974,0,0,1,111.741,195.448Zm34.27.834a24.585,24.585,0,0,1,5.474,2.166c.233.126.464.256.691.388-1.535-9.238-6.083-18.861-15.419-23.869-5.918-3.177-12.066-3.51-18.012-3.831l-.849-.047a260.017,260.017,0,0,1-27.568-3.043c0,.031.007.062.011.095a233.784,233.784,0,0,0,24.551,3.569l.848.075c5.316.468,10.813.952,16.156,3.928C139.935,180.18,144.233,188.194,146.011,196.282Zm-29.387-.154a35.969,35.969,0,0,0,5.091.3c-1.578-5.321-4.589-11.929-10.255-15.989a31.792,31.792,0,0,0-7.654-3.817q-.581-.224-1.15-.446A111.261,111.261,0,0,1,90.775,170.7l0,.011a78.445,78.445,0,0,0,9.017,6.123c.432.255.873.506,1.32.761a37.978,37.978,0,0,1,5.534,3.621c4.927,4.027,7.922,10.132,9.745,14.373C116.471,195.769,116.548,195.948,116.624,196.128ZM90.667,170.186A110.386,110.386,0,0,0,102.8,175.8q.568.224,1.148.446a32.162,32.162,0,0,1,7.744,3.865c5.794,4.153,8.849,10.908,10.437,16.31,1.78-.028,3.545-.153,5.293-.309-1.337-5.157-4.325-12.463-10.9-16.769a31.679,31.679,0,0,0-9.752-3.9q-.532-.142-1.058-.288a142.456,142.456,0,0,1-15.054-5.02Zm49.013,25.193a29.524,29.524,0,0,1,5.9.793c-1.783-7.924-6.016-15.741-13.878-20.11-5.269-2.933-10.723-3.414-16-3.878l-.849-.076a234.074,234.074,0,0,1-24.462-3.549c0,.03.008.058.013.087a206.071,206.071,0,0,0,21.458,4.084l.855.114c4.639.609,9.437,1.24,14.124,3.968C133.905,180.907,137.874,188.138,139.68,195.379ZM90.569,169.672a141.762,141.762,0,0,0,15.249,5.1l1.056.287a32.011,32.011,0,0,1,9.868,3.949c6.711,4.393,9.739,11.842,11.086,17.067.679-.062,1.355-.128,2.029-.194,1.126-.11,2.257-.219,3.394-.311-1.432-5.653-4.613-13.007-11.669-17.321-3.926-2.412-7.948-3.178-11.837-3.918l-.982-.188A173.457,173.457,0,0,1,90.557,169.6Zm20.79,25.229a27.41,27.41,0,0,0,4.8,1.161c-.044-.105-.089-.21-.135-.316-1.807-4.2-4.772-10.249-9.631-14.221a37.827,37.827,0,0,0-5.48-3.585c-.448-.254-.89-.506-1.323-.761a79.693,79.693,0,0,1-8.579-5.776,50.928,50.928,0,0,0,5.782,6.478c.616.588,1.254,1.16,1.929,1.765.931.834,1.893,1.7,2.882,2.679a67.131,67.131,0,0,1,7.223,9.015c.49.69.964,1.36,1.425,2,.356.49.7.983,1.04,1.473Zm-20.877-25.74a173.011,173.011,0,0,0,18.357,4.591l.981.187c3.924.748,7.983,1.52,11.971,3.971,7.2,4.4,10.421,11.9,11.864,17.631a53.426,53.426,0,0,1,5.61-.176c-1.795-7.113-5.7-14.2-12.624-18.208-4.617-2.687-9.375-3.312-13.976-3.917l-.856-.113a207.121,207.121,0,0,1-21.341-4.053Zm.683,3.109c2.538,9.158,9.754,18.752,19.545,22.4-.256-.365-.514-.732-.779-1.1-.462-.636-.938-1.307-1.428-2a67.022,67.022,0,0,0-7.178-8.963c-.982-.973-1.941-1.833-2.868-2.664-.677-.607-1.317-1.181-1.939-1.774A52.377,52.377,0,0,1,91.165,172.27Zm152.921,10.763q-.011,1.227-.068,2.442c.573-1.425,1.09-2.83,1.533-4.2Q244.854,182.1,244.086,183.033Zm-.058-3.254q.057,1.316.06,2.621c.621-.754,1.211-1.452,1.759-2.089.218-.747.408-1.5.578-2.26C245.678,178.561,244.874,179.136,244.028,179.779Zm2.877-2.052c-.135.634-.283,1.259-.447,1.88.393-.45.761-.863,1.1-1.238a18.269,18.269,0,0,0,1.606-2.073C248.516,176.683,247.754,177.158,246.905,177.727Zm-3.14-1.583q.159,1.583.239,3.152c.9-.681,1.759-1.284,2.542-1.811.188-.9.351-1.825.5-2.789C245.972,175.113,244.872,175.6,243.765,176.144Zm3.714-1.612c-.14.911-.29,1.785-.46,2.639.979-.646,1.832-1.163,2.513-1.556l.109-.064c.416-.671.8-1.365,1.2-2.092C249.757,173.744,248.631,174.1,247.479,174.532Zm-4.2-2.141q.262,1.668.44,3.33c1.147-.563,2.285-1.056,3.4-1.48.084-.557.164-1.129.244-1.718l.007-.056q.081-.6.163-1.217A36.252,36.252,0,0,0,243.281,172.391Zm8.083.934c-.334.622-.661,1.221-1,1.8a43.3,43.3,0,0,0,3.673-2.425l-.906.21q-.753.172-1.526.355Zm-3.417-2.157q-.089.687-.181,1.353l-.007.055c-.069.515-.14,1.015-.212,1.5a35.449,35.449,0,0,1,3.548-1.1l.266-.5.414-.773c.191-.355.387-.722.585-1.1A35.064,35.064,0,0,0,247.947,171.168Zm4.877-.585c-.238.46-.474.9-.7,1.313l-.413.773-.1.184c.481-.114.956-.223,1.424-.331.6-.138,1.192-.275,1.778-.416.449-.352.891-.715,1.335-1.1.183-.157.363-.32.541-.487-1.045,0-2.124,0-3.2.035C253.267,170.563,253.046,170.572,252.824,170.583Zm-10.25-1.99q.364,1.7.643,3.4a36.965,36.965,0,0,1,4.369-1.159c.125-1,.238-2.025.306-3.08A37.956,37.956,0,0,0,242.574,168.593Zm14.7,1.929q-.418.416-.856.79c-.225.194-.448.381-.672.566a32.319,32.319,0,0,0,4.339-1.391C259.157,170.517,258.222,170.521,257.27,170.522Zm-8.975-2.8c-.066,1.037-.174,2.051-.3,3.032a35.6,35.6,0,0,1,4.576-.556c.406-.791.808-1.626,1.162-2.5A38.14,38.14,0,0,0,248.3,167.719Zm5.853,0c-.341.865-.727,1.685-1.114,2.451.148-.007.3-.012.444-.017,1.228-.035,2.451-.032,3.626-.034a18.513,18.513,0,0,0,1.591-1.839c-1.092-.165-2.2-.323-3.306-.444Q254.768,167.771,254.148,167.723Zm4.995.63a19.194,19.194,0,0,1-1.481,1.769c1.161,0,2.3-.017,3.42-.077a15.468,15.468,0,0,0,1.929-1.118c-1.022-.137-2.056-.3-3.109-.458ZM263.6,169a16.46,16.46,0,0,1-1.528.976,25,25,0,0,0,2.9-.4c.443-.09.877-.2,1.3-.32C265.383,169.2,264.5,169.112,263.6,169Zm-173.732.387.268.108,0-.026Zm-.651-.626c.28.09.56.177.842.266l-.009-.057-.833-.209Zm180.735-.614c-.5.275-1.012.53-1.548.761.318,0,.635-.015.953-.032a18.883,18.883,0,0,0,2.949-.4C271.526,168.4,270.74,168.286,269.953,168.149Zm-5.885.506c1.1.128,2.19.22,3.276.248a17.4,17.4,0,0,0,1.974-.868c-1.2-.226-2.409-.5-3.608-.8A18.9,18.9,0,0,1,264.068,168.655Zm-4.66-.667.555.085c1.2.185,2.372.366,3.531.513a18.182,18.182,0,0,0,1.758-1.47c-.809-.205-1.615-.418-2.415-.63-.7-.186-1.418-.375-2.135-.558A22.638,22.638,0,0,1,259.408,167.988Zm-170.486.286c.356.091.711.181,1.068.27l-.009-.067c-.356-.073-.714-.145-1.069-.219Zm185.8-.066h.076a22.162,22.162,0,0,0,3.566-.288l-.3-.034q-.906-.111-1.816-.28Q275.5,167.939,274.726,168.208Zm-33.093-3.475q.474,1.738.856,3.469a38.609,38.609,0,0,1,5.426-.854,27.3,27.3,0,0,0,0-3.159A41.661,41.661,0,0,0,241.633,164.733Zm28.869,3.1a30.169,30.169,0,0,0,3.016.336,20.247,20.247,0,0,0,2.031-.7c-1.095-.225-2.193-.5-3.29-.813A20.143,20.143,0,0,1,270.5,167.836Zm-181.863-.043c.43.09.859.178,1.29.265l-.009-.079q-.651-.108-1.3-.219Zm165.658-.459q.569.045,1.136.107c1.183.131,2.369.3,3.531.479a21.363,21.363,0,0,0,1.337-2.095c-1-.253-2-.494-3-.7q-1.119-.234-2.238-.41A17.149,17.149,0,0,1,254.3,167.334Zm11.745-.433c1.277.316,2.561.6,3.841.83a19.507,19.507,0,0,0,1.891-1.213c-1.407-.413-2.812-.875-4.2-1.351A21.57,21.57,0,0,1,266.042,166.9Zm-178.2.724.274.059-.007-.012Zm194.775-.4q-.623.224-1.25.413a22.118,22.118,0,0,0,2.513-.223Q283.246,167.334,282.615,167.226Zm-5.72.086c.408.069.816.127,1.223.177.583.072,1.157.117,1.722.141q.993-.229,1.975-.553c-1.024-.2-2.051-.458-3.078-.752Q277.827,166.868,276.9,167.312Zm-188.533,0c.5.086,1.01.172,1.515.256l-.008-.087q-.766-.105-1.533-.214Zm159.951-3.123a27.911,27.911,0,0,1,.005,3.128,39.238,39.238,0,0,1,5.572-.012,16.677,16.677,0,0,0,.78-2.653A43.326,43.326,0,0,0,248.313,164.187Zm38.34,3.066c6.591.266,13.064-1.7,19.683-5.929,10.018-6.4,13.658-15.452,9.735-24.208a30.524,30.524,0,0,0-6.31-8.752q.39.718.721,1.457a16.616,16.616,0,0,1-.4,15.025A41.054,41.054,0,0,1,306.8,149.8c-.824,1.12-1.676,2.279-2.429,3.47a22.187,22.187,0,0,0-1.592,3.291c-.891,2.133-1.733,4.147-3.579,5.1-.633.325-1.269.659-1.908,1A51.264,51.264,0,0,1,286.653,167.253Zm-199.678-.186.879.155-.016-.029Zm185.681-.714c1.185.33,2.369.617,3.548.837a21.7,21.7,0,0,0,2-1.019c-1.286-.383-2.571-.823-3.853-1.3C273.828,165.38,273.262,165.877,272.656,166.353Zm10.709.588c.637.1,1.275.171,1.91.226,4.274-.9,8.094-2.9,11.832-4.866.64-.337,1.276-.671,1.91-1,1.717-.884,2.531-2.832,3.394-4.9a22.331,22.331,0,0,1,1.624-3.349c.759-1.2,1.616-2.37,2.444-3.5a40.794,40.794,0,0,0,3.255-4.905,16.223,16.223,0,0,0,.383-14.674,22.744,22.744,0,0,0-1.437-2.693c-1.152-1.114-2.369-2.209-3.625-3.3a17.851,17.851,0,0,1-2.148,16.683c-.891,1.3-1.948,2.541-2.968,3.746a31.394,31.394,0,0,0-4.4,6.121,38.189,38.189,0,0,0-2.522,7.34c-.341,1.271-.662,2.473-1.056,3.653l-.016.052-.042.036A30.252,30.252,0,0,1,283.365,166.941Zm-195.272-.116q.872.126,1.742.245a20.911,20.911,0,0,1,.034-3.659c1.2-11.8,10.062-19.485,18.569-25.444,1.464-1.026,2.98-2.05,4.447-3.041,7.475-5.051,15.2-10.274,19.624-17.971a16.559,16.559,0,0,0,2.509-9.165,29.371,29.371,0,0,0-2.273-8.748,15.639,15.639,0,0,1,.014,3.72,21.083,21.083,0,0,1-3.836,9c-4.922,7.349-12.154,13.206-19.148,18.869-1.81,1.466-3.681,2.981-5.473,4.492a77.309,77.309,0,0,0-12.5,12.77c-4.043,5.435-5.689,10.114-5.18,14.727A11.324,11.324,0,0,0,88.093,166.825Zm191.11-.784c1.1.3,2.2.562,3.286.756.029.006.059.011.089.015a29.358,29.358,0,0,0,9.022-5.458c.382-1.154.7-2.333,1.031-3.579a38.489,38.489,0,0,1,2.552-7.414,31.718,31.718,0,0,1,4.45-6.2c1.015-1.2,2.065-2.435,2.944-3.714a17.483,17.483,0,0,0,1.832-17.015c-.893-.77-1.8-1.54-2.721-2.317-.589-.5-1.182-1-1.773-1.5a19.52,19.52,0,0,1-4.188,16.883c-.961,1.179-2.058,2.319-3.119,3.42-2.279,2.365-4.634,4.812-5.9,7.9-1.313,3.2-1.54,6.616-1.757,9.919-.082,1.242-.167,2.526-.311,3.749l-.008.067-.046.048A27.952,27.952,0,0,1,279.2,166.041Zm-18.3-.476c.686.176,1.368.357,2.041.535.877.232,1.762.465,2.651.689a20.771,20.771,0,0,0,1.578-1.76l-1.468-.508c-1.224-.423-2.472-.856-3.723-1.265A24.51,24.51,0,0,1,260.9,165.565Zm-174.852.959c.519.079,1.037.155,1.555.231a11.329,11.329,0,0,1-1.371-4.087c-.685-6.2,2.672-11.536,5.256-15.009a77.664,77.664,0,0,1,12.558-12.839c1.8-1.512,3.668-3.029,5.479-4.5,6.971-5.644,14.18-11.481,19.069-18.782a20.737,20.737,0,0,0,3.771-8.833,18.67,18.67,0,0,0-.23-5.234l-.148-.375-.376-.954c-.17-.432-.386-1.081-.639-1.919a22.246,22.246,0,0,1-.877,3.528,32.419,32.419,0,0,1-5.1,8.619c-5.081,6.6-11.492,12.653-17.69,18.511-2.445,2.309-4.974,4.7-7.369,7.073a112.151,112.151,0,0,0-12.364,14.2c-2.739,3.835-6.194,9.629-4.586,15.647A10.668,10.668,0,0,0,86.046,166.524Zm-1.97-.3q.656.1,1.31.2a10.431,10.431,0,0,1-2.789-4.512c-1.652-6.181,1.861-12.082,4.647-15.982a112.284,112.284,0,0,1,12.408-14.255c2.4-2.379,4.928-4.77,7.375-7.081,6.188-5.847,12.586-11.893,17.649-18.464a32.076,32.076,0,0,0,5.039-8.506,23.351,23.351,0,0,0,.991-4.3c-.355-1.236-.764-2.772-1.2-4.548-.612,1.269-1.255,2.579-2.084,3.967a62.809,62.809,0,0,1-6.358,8.235c-4.009,4.62-8.451,9.343-12.748,13.912-4.264,4.534-8.673,9.223-12.748,13.9a175.983,175.983,0,0,0-12.232,15.639c-2.868,4.17-6.4,10.425-3.994,16.572A11.716,11.716,0,0,0,84.076,166.221Zm183.753-1.389c1.441.491,2.894.968,4.348,1.386a22.382,22.382,0,0,0,1.761-1.5c-1.592-.6-3.176-1.24-4.744-1.884A23.914,23.914,0,0,1,267.829,164.832Zm-185.66,1.083c.333.055.667.108,1,.162a11.248,11.248,0,0,1-4.2-4.93c-2.48-6.325,1.116-12.7,4.037-16.945a176.74,176.74,0,0,1,12.259-15.676c4.08-4.678,8.492-9.37,12.759-13.908,4.294-4.565,8.733-9.286,12.738-13.9a62.627,62.627,0,0,0,6.316-8.18c.877-1.466,1.545-2.852,2.192-4.194l.085-.176c-.327-1.336-.669-2.8-1.018-4.359-.837.843-1.671,1.775-2.561,2.769-.336.375-.68.76-1.036,1.152-1.436,1.575-3.052,3.214-4.762,4.95-.935.949-1.891,1.919-2.845,2.907a349.441,349.441,0,0,0-25.938,30.033c-3.84,5.028-7.8,10.612-12.1,17.071-2.971,4.474-6.557,11.156-3.4,17.506C77.063,162.964,79.666,164.639,82.169,165.915Zm192.5-1.351c1.334.49,2.672.942,4.008,1.329a27.276,27.276,0,0,0,5.566-4.526c.138-1.191.217-2.392.3-3.662.221-3.336.448-6.786,1.788-10.046,1.3-3.157,3.681-5.631,5.985-8.023,1.055-1.1,2.146-2.229,3.1-3.4a19.118,19.118,0,0,0,3.983-17.071c-1.716-1.471-3.418-2.975-5.021-4.538a21.679,21.679,0,0,1-5.829,17.678c-1.06,1.158-2.251,2.276-3.4,3.358-2.918,2.742-5.935,5.578-7.28,9.42-1.353,3.863-1.064,8.109-.785,12.216.094,1.367.19,2.781.22,4.137v.069l-.041.054A26.582,26.582,0,0,1,274.672,164.564ZM80.327,165.607l.605.1a12.944,12.944,0,0,1-5.6-5.333c-3.245-6.536.4-13.349,3.429-17.9,4.3-6.468,8.268-12.059,12.112-17.093a349.964,349.964,0,0,1,25.969-30.068c.955-.99,1.912-1.96,2.848-2.911,1.708-1.732,3.321-3.369,4.751-4.938q.532-.588,1.033-1.15c.959-1.07,1.853-2.068,2.757-2.965-.308-1.392-.62-2.858-.93-4.388a36.523,36.523,0,0,0-4.536,3.2l-.71.553c-3.353,2.583-6.249,5.03-8.856,7.483-8.458,7.957-17.087,18.51-26.382,32.261-3,4.446-5.827,8.883-8.557,13.174-1.161,1.825-2.3,3.608-3.405,5.33-4.8,7.461-5.714,13.493-2.81,18.441C73.915,162.589,77.362,164.4,80.327,165.607Zm174.805-1.291q1.122.177,2.246.413c1.04.219,2.085.471,3.122.734a24.059,24.059,0,0,0,1.1-2.331c-.8-.257-1.593-.5-2.386-.73q-1.959-.561-3.911-.958A12.37,12.37,0,0,1,255.132,164.316Zm-176.523,1a.507.507,0,0,1,.054.009A15.182,15.182,0,0,1,71.7,159.6c-2.989-5.092-2.067-11.261,2.817-18.862,1.109-1.721,2.244-3.5,3.405-5.328,2.731-4.293,5.555-8.732,8.563-13.184C95.8,108.455,104.444,97.881,112.924,89.9c2.616-2.463,5.523-4.919,8.885-7.508l.708-.552a35.678,35.678,0,0,1,4.7-3.287c-.262-1.3-.522-2.641-.777-4.017a32.6,32.6,0,0,0-7.07,3.144,61.354,61.354,0,0,0-10.1,7.117c-11.121,9.589-20.177,23.468-26.824,34.488-1.8,2.99-3.551,5.987-5.24,8.885-2.287,3.921-4.446,7.625-6.587,11.052C65.7,147.118,64.971,153.458,68.4,158.6,70.734,162.112,74.688,163.979,78.609,165.311Zm183.515-2.428c1.247.408,2.489.839,3.707,1.261.531.183,1.064.369,1.6.552a23.466,23.466,0,0,0,1.389-2.014l-.3-.124c-2.013-.827-4.084-1.677-6.142-2.43.088.421.173.84.251,1.255l.01.05-.016.048Q262.392,162.193,262.124,162.883ZM125.679,70.229a33.062,33.062,0,0,0-8.987,2.417A47.286,47.286,0,0,0,105.336,79.4c-11.422,9.127-19.857,23.043-27.27,36.721-1.245,2.3-2.468,4.6-3.649,6.832-2.772,5.228-5.389,10.165-8.04,14.535-5.037,8.317-5.568,14.964-1.622,20.322,2.574,3.5,6.6,5.449,10.932,6.818a16.661,16.661,0,0,1-7.621-5.8c-3.524-5.292-2.8-11.772,2.21-19.814,2.137-3.422,4.3-7.123,6.58-11.041,1.69-2.9,3.438-5.9,5.243-8.891,6.663-11.045,15.742-24.958,26.906-34.584a61.928,61.928,0,0,1,10.17-7.164,32.951,32.951,0,0,1,7.193-3.189C126.133,72.866,125.9,71.556,125.679,70.229ZM269.4,162.488c1.6.658,3.226,1.317,4.855,1.923a26.364,26.364,0,0,0,2.643-3.031c-.032-1.326-.126-2.71-.217-4.05-.282-4.146-.574-8.434.806-12.376s4.43-6.8,7.382-9.578c1.147-1.077,2.331-2.19,3.382-3.338a20.967,20.967,0,0,0,5.684-17.841c-1.139-1.132-2.221-2.3-3.214-3.5q-1.185-1.435-2.171-2.868c1.042,7.318-1.449,14.579-7.179,20.292-1.171,1.171-2.472,2.3-3.731,3.395-3.548,3.085-7.218,6.275-8.616,10.847-1.371,4.49-.548,9.532.249,14.408.25,1.531.508,3.113.69,4.636l.007.063-.03.054C269.769,161.853,269.588,162.174,269.4,162.488Zm-28.983-1.76q.1.3.2.593.49,1.514.912,3.026a41.882,41.882,0,0,1,6.357-.557,20.622,20.622,0,0,0-.321-2.355c-.062-.32-.129-.638-.2-.958A45.53,45.53,0,0,0,240.42,160.728Zm7.963,3.059a43.46,43.46,0,0,1,6.36.47,12.093,12.093,0,0,0,.153-2.835l0-.059a49.508,49.508,0,0,0-7.115-.869c.063.288.122.576.179.863a21.157,21.157,0,0,1,.33,2.43ZM124.842,66a37.224,37.224,0,0,0-10.827,1.609,41.279,41.279,0,0,0-12.609,6.4c-12.442,9.216-20.83,24.938-27.717,38.952-.861,1.765-1.707,3.521-2.543,5.254-3.076,6.386-5.982,12.416-9.008,17.545-5.148,8.732-5.484,15.687-1.028,21.262C64,160.631,68.2,162.646,72.732,164a18.556,18.556,0,0,1-8.3-5.954c-4.052-5.5-3.527-12.294,1.6-20.765,2.645-4.36,5.26-9.293,8.028-14.515,1.183-2.231,2.405-4.537,3.651-6.836,7.434-13.715,15.895-27.67,27.373-36.842a47.646,47.646,0,0,1,11.452-6.813,33.5,33.5,0,0,1,9.074-2.444q-.315-1.895-.606-3.834ZM120.2,61.652c-12.011,0-22.189,4.678-30.907,14.152-9.669,10.508-16.266,25.512-22.087,38.752A211.182,211.182,0,0,1,57.9,134.021c-3.352,5.834-7.044,14.484-.432,22.208,3.1,3.625,7.472,5.722,12.032,7.084a20.367,20.367,0,0,1-8.7-6.044c-4.573-5.72-4.247-12.824.995-21.715,3.018-5.115,5.92-11.138,8.993-17.516.835-1.733,1.682-3.49,2.544-5.256,6.907-14.056,15.324-29.829,27.838-39.1A41.646,41.646,0,0,1,113.9,67.226,37.6,37.6,0,0,1,124.841,65.6h.106q-.276-1.868-.524-3.761Q122.278,61.654,120.2,61.652ZM255.268,161.03q2.019.408,4.051.988c.806.23,1.616.48,2.425.741q.256-.664.481-1.352c-.091-.475-.189-.956-.292-1.439-.27-.1-.539-.192-.809-.284a58.184,58.184,0,0,0-6.3-1.788A29.739,29.739,0,0,1,255.268,161.03Zm7.01-1.363c2.142.775,4.3,1.661,6.392,2.521l.359.147q.273-.462.532-.942c-.18-1.5-.434-3.051-.68-4.556-.8-4.921-1.635-10.01-.237-14.59,1.432-4.682,5.145-7.91,8.737-11.032,1.253-1.089,2.548-2.215,3.71-3.376,5.859-5.841,8.276-13.323,6.927-20.806-.262-.4-.514-.8-.755-1.2q-.289-.334-.571-.673a36.632,36.632,0,0,1-3.359-4.758c-.228-.259-.454-.522-.673-.787q-.129-.154-.255-.309c1.982,8.916-.909,17.837-8.206,24.633-1.29,1.2-2.713,2.365-4.089,3.488-4.174,3.408-8.49,6.932-9.923,12.222-1.381,5.1-.019,10.916,1.3,16.544C261.754,157.333,262.029,158.505,262.278,159.667Zm-14.592.424a49.573,49.573,0,0,1,7.174.858,30.154,30.154,0,0,0-.458-3.146,54.716,54.716,0,0,0-7.6-1.092C247.128,157.837,247.43,158.966,247.686,160.091Zm-8.657-3.341c.435,1.2.862,2.4,1.262,3.591a45.761,45.761,0,0,1,6.981-.268c-.26-1.127-.565-2.26-.895-3.391A49.5,49.5,0,0,0,239.029,156.75Zm15.715.719a58.309,58.309,0,0,1,6.511,1.836c.193.067.386.134.58.2-.235-1.079-.489-2.165-.738-3.23-1.33-5.675-2.7-11.545-1.3-16.74,1.467-5.412,5.833-8.977,10.056-12.426,1.371-1.119,2.788-2.277,4.07-3.471,7.413-6.9,10.21-16.034,7.887-25.083a34.2,34.2,0,0,1-2.494-3.689c-.236-.265-.466-.533-.693-.8a34.838,34.838,0,0,1-2.57-3.483c3.645,12.313-2.021,22.98-9.031,29.161-1.413,1.247-2.964,2.451-4.464,3.615-4.8,3.722-9.755,7.57-11.215,13.564-1.069,4.388.295,9.131,1.74,14.153C253.691,153.176,254.307,155.32,254.744,157.469Zm-8.062-1.166a54.8,54.8,0,0,1,7.634,1.073c-.431-2.077-1.028-4.154-1.613-6.189-1.46-5.075-2.839-9.868-1.745-14.358,1.494-6.131,6.509-10.022,11.359-13.786,1.494-1.16,3.04-2.36,4.445-3.6,7.193-6.342,12.952-17.473,8.427-30.235-.2-.228-.4-.456-.593-.687a33.614,33.614,0,0,1-3.407-4.825c-.212-.237-.42-.477-.626-.717q-.54-.636-1.033-1.274c5.315,14.4-1.372,26.848-9.677,33.85-1.54,1.3-3.224,2.549-4.852,3.76-5.418,4.028-11.019,8.192-12.5,14.889-1.2,5.377.718,11.288,2.745,17.546C245.737,153.25,246.23,154.773,246.682,156.3ZM262.4,71.776q.236.5.454,1c7.174,16.53-.553,30.769-10.176,38.583-1.665,1.353-3.482,2.657-5.238,3.917-6.035,4.331-12.275,8.81-13.778,16.206-1.4,6.883,1.587,14.989,4.473,22.827.249.678.5,1.363.752,2.049a49.727,49.727,0,0,1,7.368-.087c-.439-1.478-.916-2.951-1.386-4.4-2.045-6.312-3.976-12.273-2.755-17.756,1.507-6.844,7.17-11.053,12.646-15.124,1.624-1.207,3.3-2.455,4.833-3.746,8.463-7.134,15.226-19.99,9.016-34.783-.587-.828-1.119-1.657-1.605-2.488q-.238-.272-.473-.542a39.363,39.363,0,0,1-3.89-5.382l-.142-.161Zm42.341,51.415c1,.866,1.994,1.742,2.957,2.634a38.427,38.427,0,0,0-3.837-4.5q.358.671.666,1.362Q304.64,122.943,304.743,123.191Zm-4.987-4.243q1.1.939,2.19,1.861,1.047.885,2.1,1.781a22,22,0,0,0-1.245-2.318c-1.171-1.136-2.408-2.254-3.681-3.375Q299.492,117.92,299.756,118.948Zm-.955-2.858c1.023.893,2.038,1.8,3.026,2.717a38.409,38.409,0,0,0-3.9-4.575q.35.655.648,1.33Q298.693,115.825,298.8,116.09Zm-4.519-2.115c1.565,1.552,3.238,3.047,4.932,4.508a21.42,21.42,0,0,0-.747-2.155q-.888-.774-1.792-1.555c-.9-.778-1.806-1.563-2.706-2.359Q294.154,113.194,294.282,113.975Zm-.49-2.252c1.043.929,2.1,1.843,3.145,2.748q.581.5,1.162,1.008a21.386,21.386,0,0,0-1.235-2.306c-1.182-1.151-2.429-2.285-3.707-3.428C293.4,110.4,293.613,111.062,293.792,111.723Zm-4.911-4.124q.98,1.422,2.152,2.845c.865,1.049,1.8,2.068,2.781,3.063q-.151-.776-.361-1.551C291.871,110.547,290.322,109.1,288.881,107.6Zm3.951,1.322c1.023.909,2.045,1.828,3.042,2.763a39.339,39.339,0,0,0-3.888-4.565c.228.432.441.868.636,1.312C292.7,108.594,292.765,108.758,292.832,108.921ZM288.3,106.4c1.526,1.675,3.209,3.278,4.939,4.834q-.32-1.037-.745-2.072l-.851-.756c-1.212-1.074-2.439-2.163-3.64-3.276C288.118,105.549,288.217,105.974,288.3,106.4Zm-.5-2.009c1.35,1.266,2.74,2.5,4.11,3.717.07.06.139.122.208.183a21.411,21.411,0,0,0-1.206-2.241c-1.195-1.174-2.454-2.335-3.738-3.51Q287.528,103.458,287.8,104.387Zm-.2,1.215c.054.062.108.125.163.186-.094-.394-.2-.79-.312-1.184-.293-.277-.585-.554-.873-.833C286.89,104.38,287.231,104.992,287.6,105.6Zm-.765-3.922.036.032c1.01.924,2.028,1.853,3.026,2.8a41,41,0,0,0-3.883-4.567c.236.447.457.9.658,1.357C286.724,101.427,286.779,101.554,286.831,101.68Zm-2,.348q.624.913,1.329,1.826-.245-.475-.471-.952Q285.257,102.469,284.832,102.028Zm1.2.649c.385.385.779.768,1.175,1.147q-.312-.956-.709-1.908-.66-.6-1.324-1.214Q285.563,101.689,286.031,102.677Zm-2.422-2.572c.512.586,1.047,1.164,1.6,1.733q-.381-.877-.7-1.757c-.636-.591-1.269-1.188-1.892-1.793Q283.07,99.2,283.609,100.105Zm1.246-.242q.619.575,1.239,1.142a22.024,22.024,0,0,0-1.18-2.169q-.3-.294-.6-.59C284.48,98.786,284.659,99.323,284.855,99.863Zm-2.768-2.649c.7.694,1.409,1.378,2.128,2.053q-.268-.8-.491-1.6c-.724-.7-1.464-1.4-2.211-2.107-.069-.066-.14-.132-.209-.2Q281.66,96.291,282.087,97.214Zm.1,1.165.146.186c-.07-.137-.138-.275-.207-.413C282.142,98.229,282.162,98.3,282.182,98.379Zm-1.377-1.9q.344.508.713,1.018c-.042-.14-.085-.278-.129-.418Q281.095,96.78,280.805,96.479Zm.186-1.961q.4.38.8.755c.579.548,1.16,1.1,1.737,1.652-.016-.062-.031-.123-.046-.185a43.4,43.4,0,0,0-2.88-3.407C280.721,93.729,280.851,94.122,280.991,94.518Zm-1.339.124q.7.789,1.44,1.558-.294-.826-.648-1.65-.879-.837-1.753-1.689Q279.135,93.754,279.652,94.642Zm.7-2.151c1.023,1.083,2.008,2.191,2.911,3.332-2.06-9.468.248-19.006,2.643-28.9,3.153-13.037,6.415-26.518-.99-40.324-3.994-7.447-11.086-14.241-19.968-19.132C256.543,2.833,247.058.248,238.942.406a42.731,42.731,0,0,0-13.871,2.582,39.6,39.6,0,0,1,3.963.124h0a55.425,55.425,0,0,1,10.7,2.276l1.935.555c4.071,1.165,8.28,2.37,12.221,3.913,7.91,3.091,18.615,8.768,24.692,18.258,7.956,12.418,5.431,25,2.989,37.165C279.7,74.614,277.892,83.6,280.354,92.491Zm-149.247.863c.268.907.512,1.662.722,2.243a30.862,30.862,0,0,1-.391-3.247c-.014-.27-.042-.614-.08-1.023C131.284,92,131.205,92.671,131.107,93.354ZM278.187,91.8q.892.894,1.807,1.766a23.156,23.156,0,0,0-1.167-2.083q-.654-.663-1.326-1.328Q277.816,90.979,278.187,91.8Zm-1.444-.9q.746,1.113,1.623,2.216-.273-.543-.521-1.089Q277.287,91.464,276.743,90.9Zm3.246,1.786.117.222c-.013-.047-.027-.093-.039-.139ZM129.744,88.276c.384,1.552.751,2.938,1.086,4.122.066-.532.124-1.059.182-1.584.052-.474.1-.933.158-1.383-.095-.939-.207-2.066-.32-3.35C130.473,86.773,130.113,87.511,129.744,88.276Zm149.4,2.964c.237.241.473.485.708.728-2.256-8.94-.446-17.954,1.322-26.768,2.427-12.088,4.937-24.588-2.932-36.871-6.02-9.4-16.647-15.03-24.5-18.1-3.923-1.537-8.123-2.739-12.185-3.9l-1.936-.556A55.107,55.107,0,0,0,229,3.511h0a39.67,39.67,0,0,0-5.076-.083,40.836,40.836,0,0,0-5.475,2.68q.339.054.681.114h0a48.2,48.2,0,0,1,8.142,2.456c.851.31,1.718.628,2.609.938,3.021,1.053,6.142,1.836,9.159,2.594,1.987.5,3.863.971,5.722,1.514,12.922,3.757,21.8,9.025,27.129,16.1,8.2,10.882,6.493,22.442,4.843,33.621-1.192,8.069-2.411,16.325.01,24.484A33.877,33.877,0,0,1,279.147,91.24Zm-3.539-2.161q.868.977,1.8,1.927-.312-.759-.579-1.521-.235-.23-.469-.462-.646-.636-1.3-1.284.236.577.442,1.15C275.536,88.952,275.572,89.016,275.608,89.079Zm1.571.2q.219.215.436.431c-.173-.235-.349-.47-.529-.7Zm-2.547-2.526c.636.64,1.277,1.273,1.911,1.9-.057-.178-.113-.358-.166-.537-.791-.968-1.632-1.916-2.494-2.848C274.151,85.75,274.4,86.246,274.632,86.748ZM131.2,85.464c.087,1.04.176,1.987.259,2.826a11.13,11.13,0,0,0,.9-3.892,3.6,3.6,0,0,1-.9.631C131.373,85.172,131.285,85.316,131.2,85.464Zm-2.571-1.947c.328,1.476.653,2.866.966,4.151.392-.806.779-1.577,1.195-2.3-.09-1.083-.178-2.265-.256-3.529A20.3,20.3,0,0,0,128.628,83.517ZM272.666,85.3q.774,1.15,1.688,2.3-.268-.54-.513-1.08C273.446,86.116,273.053,85.711,272.666,85.3Zm.608-1.278c.972,1.028,1.93,2.07,2.836,3.138-2.109-7.939-.927-15.944.23-23.775,1.714-11.61,3.333-22.575-4.766-33.323-5.279-7-14.085-12.224-26.922-15.957-1.852-.542-3.724-1.012-5.707-1.509-3.026-.761-6.156-1.546-9.194-2.606-.893-.31-1.761-.628-2.615-.94a48.026,48.026,0,0,0-8.074-2.437h0q-.582-.1-1.152-.185a42,42,0,0,0-5.519,3.993c1.183.484,2.354,1.033,3.561,1.6,1.3.612,2.653,1.244,4.08,1.821a60.731,60.731,0,0,0,12.15,3.1c1.2.217,2.329.423,3.459.651,9.783,1.955,21.985,5.306,29.563,13.943,8.231,9.381,7.439,19.423,6.6,30.054C271.22,68.983,270.623,76.552,273.274,84.025Zm-1.754-.557c.607.682,1.238,1.357,1.88,2.024q-.172-.423-.331-.846c-.145-.244-.294-.485-.447-.725q-.771-.808-1.546-1.607l-.405-.418Q271.067,82.682,271.52,83.468Zm-140.6-1.91c.069,1.145.146,2.225.227,3.227l.012-.018.031-.049.053-.026a3.51,3.51,0,0,0,1.2-.963c.03-.253.06-.516.091-.785.071-.628.148-1.3.237-2.017a10.63,10.63,0,0,1-1.523.4C131.133,81.4,131.024,81.479,130.916,81.558Zm2.273-.788c-.1.791-.185,1.533-.263,2.219l-.011.092a20.1,20.1,0,0,0,1.448-2.864A10.872,10.872,0,0,1,133.189,80.77Zm-5.562-1.987c.3,1.486.6,2.915.9,4.274a19.935,19.935,0,0,1,1.978-1.7c-.066-1.145-.123-2.354-.164-3.617A11.571,11.571,0,0,0,127.627,78.783Zm141.745.161a46.379,46.379,0,0,1,3.143,4.084c-2.239-7.169-1.668-14.4-1.11-21.47.832-10.545,1.618-20.5-6.5-29.759-7.5-8.546-19.619-11.872-29.34-13.815-1.128-.227-2.256-.432-3.452-.649a61.026,61.026,0,0,1-12.229-3.121c-1.437-.581-2.791-1.216-4.1-1.829-1.266-.594-2.492-1.168-3.731-1.668a46.009,46.009,0,0,0-5.358,5.539c1.11.631,2.261,1.255,3.486,1.814,4.631,2.117,9.44,2.637,14.089,3.141.761.082,1.511.163,2.249.251,11.787,1.371,23.821,3.748,32,11.785,8.092,7.955,8.19,16.982,8.294,26.537C266.876,66.1,266.946,72.549,269.372,78.944Zm-.41,1.324q.615.868,1.311,1.732c-.172-.343-.335-.686-.492-1.028q-.471-.493-.942-.993Zm1.161.482q.54.563,1.078,1.118c-.43-.578-.879-1.149-1.34-1.714Q269.989,80.452,270.123,80.75ZM130.738,77.659c.038,1.194.09,2.339.152,3.428.054-.038.109-.075.165-.112l.075-.031a10.006,10.006,0,0,0,1.692-.463c.132-1.03.29-2.139.492-3.315-.733.166-1.489.312-2.274.439C130.938,77.622,130.838,77.64,130.738,77.659Zm3-.592c-.2,1.148-.359,2.234-.491,3.245a10.522,10.522,0,0,0,1.382-.713c.087-.2.175-.411.265-.622.335-.789.7-1.638,1.1-2.542C135.262,76.672,134.512,76.882,133.738,77.067ZM268.3,78.808q.507.552,1.025,1.1c-.105-.254-.206-.509-.3-.762-.451-.53-.911-1.054-1.375-1.575Q267.984,78.184,268.3,78.808Zm-131.78-2.545c-.469,1.027-.877,1.987-1.253,2.871l-.029.067a16.386,16.386,0,0,0,3.813-3.943C138.211,75.636,137.372,75.969,136.515,76.263Zm-9.723-1.819q.37,2.02.754,3.938a11.891,11.891,0,0,1,2.782-1.044c-.008-.278-.016-.561-.022-.844q-.03-1.254-.04-2.6A17.429,17.429,0,0,0,126.792,74.444Zm139.78,1.346c.693.759,1.386,1.524,2.064,2.3-2.1-6.121-2.163-12.277-2.228-18.3-.1-9.472-.2-18.418-8.174-26.257-8.091-7.952-20.047-10.309-31.763-11.674-.738-.087-1.487-.168-2.246-.25-4.681-.506-9.522-1.031-14.212-3.174-1.261-.576-2.44-1.216-3.576-1.864a53.161,53.161,0,0,0-3.608,5.064q-.44.7-.861,1.41c4.655,1.889,9.575,2.071,13.972,2.233.49.019.975.036,1.455.056,12.231.485,24.965,1.628,34.427,9.628,7.852,6.636,8.9,14.669,10,23.174.694,5.344,1.4,10.809,3.8,16.25Q266.115,75.081,266.572,75.79ZM130.666,73.88q.012,1.346.039,2.6c.007.259.013.516.02.771.083-.016.167-.03.25-.044.835-.136,1.637-.292,2.415-.473.077-.43.16-.87.25-1.317q.158-.783.329-1.62c-1.062.037-2.1.056-3.114.075Zm3.714-.094q-.18.886-.348,1.713-.117.579-.218,1.139c.826-.2,1.626-.435,2.41-.7.238-.515.491-1.048.764-1.6.121-.244.24-.487.359-.731C136.342,73.694,135.352,73.748,134.38,73.786Zm129.965.164q.792,1.144,1.712,2.287c-.152-.3-.3-.6-.439-.895l-.168-.184C265.085,74.76,264.715,74.356,264.345,73.95Zm-126.534-.38q-.23.474-.465.949-.314.631-.6,1.237a28.653,28.653,0,0,0,2.747-1.151c.279-.415.554-.85.829-1.307l.017-.029C139.491,73.4,138.646,73.493,137.811,73.57Zm2.837-.033c-.147.245-.3.485-.445.719.828-.423,1.659-.893,2.508-1.415q-.78.168-1.554.3C140.989,73.276,140.82,73.408,140.648,73.537Zm-14.6-3.347q.326,1.963.671,3.859a17.768,17.768,0,0,1,3.543-.553c-.007-1.09-.007-2.22,0-3.382A26.7,26.7,0,0,0,126.049,70.19ZM262.97,71.819c.514.585,1.041,1.17,1.567,1.748-.666-.893-1.367-1.773-2.088-2.643Q262.7,71.373,262.97,71.819ZM130.661,70.142c0,1.146,0,2.261,0,3.338l.184,0c1.041-.019,2.111-.039,3.2-.078l.072-.354q.254-1.237.521-2.557c-1.3-.12-2.64-.244-3.967-.344Zm4.385.382q-.271,1.341-.53,2.6c-.018.087-.035.173-.053.259,1.011-.041,2.041-.1,3.087-.192q.568-1.179,1.1-2.354C137.459,70.746,136.26,70.637,135.046,70.524Zm4.025.344q-.51,1.138-1.057,2.28c.98-.094,1.971-.219,2.972-.386a17.854,17.854,0,0,0,1.783-1.707C141.545,71.026,140.314,70.959,139.071,70.868Zm122.483-1.622c1.063,1.235,2.1,2.49,3.072,3.773-1.918-4.976-2.565-9.954-3.2-14.832-1.1-8.426-2.13-16.384-9.863-22.921-9.366-7.917-22.023-9.051-34.185-9.533q-.72-.03-1.454-.056c-4.448-.164-9.429-.349-14.162-2.284-1.077,1.838-2.076,3.74-3.026,5.665a57.743,57.743,0,0,0,8.681.174l.856-.026c12.823-.4,26.231-.154,36.857,7.467,7.617,5.464,9.7,12.586,11.9,20.126A70.646,70.646,0,0,0,261.554,69.246ZM143.3,71.063a19.117,19.117,0,0,1-1.54,1.562q.983-.186,1.975-.432.831-.541,1.636-1.148Q144.335,71.08,143.3,71.063Zm2.765-.045c-.38.3-.764.582-1.152.857q1.085-.315,2.177-.723c.221-.082.441-.168.66-.256Q146.906,70.976,146.062,71.018Zm-2.423-.352c.766.007,1.521-.008,2.277-.043q.825-.648,1.619-1.36c-.855-.09-1.713-.2-2.571-.325Q144.328,69.844,143.639,70.666Zm-4.4-.187c1.3.093,2.594.161,3.875.182.488-.562.955-1.16,1.4-1.788-1.428-.215-2.857-.467-4.278-.73Q139.764,69.307,139.244,70.479Zm8.826-1.162q-.72.66-1.467,1.269c.8-.052,1.608-.13,2.411-.24q.852-.4,1.682-.85C149.826,69.463,148.949,69.4,148.07,69.317Zm-12.945.813c1.246.115,2.477.227,3.7.319q.531-1.194,1.021-2.382c-.654-.122-1.306-.247-1.954-.371-.727-.138-1.462-.278-2.2-.416Q135.406,68.742,135.125,70.13Zm16.347-.612c-.369.212-.741.418-1.118.614l.1-.018q1.29-.242,2.545-.6C152.49,69.526,151.982,69.526,151.472,69.518Zm-20.81.222.046,0c1.345.1,2.7.228,4.017.349.188-.935.379-1.9.57-2.886-1.531-.283-3.076-.552-4.6-.772Q130.673,68.124,130.662,69.74ZM125.392,66q.284,1.915.592,3.791a26.828,26.828,0,0,1,4.279-.08q.009-1.629.03-3.336A40.338,40.338,0,0,0,125.392,66Zm135.819,3.458.022.041-.017-.035Zm-109.078-.337h0q.841,0,1.672-.043c.228-.012.455-.025.681-.043q.849-.3,1.677-.648c-.83-.063-1.666-.154-2.507-.268Q152.908,68.649,152.133,69.124Zm-3.669-.173c.974.087,1.943.144,2.9.164q.869-.507,1.706-1.076c-1.042-.154-2.091-.343-3.142-.556Q149.214,68.242,148.464,68.951Zm-3.246-.381q1.359.2,2.714.331.786-.726,1.539-1.513c-1.022-.214-2.047-.45-3.071-.7Q145.833,67.66,145.218,68.57Zm11.814-.125c-.333.153-.669.3-1.008.438q1.174-.151,2.323-.395c-.4,0-.8-.017-1.208-.037ZM140.4,67.764c1.455.27,2.919.527,4.38.743.424-.615.83-1.257,1.218-1.919-1.561-.387-3.118-.8-4.663-1.221Q140.887,66.563,140.4,67.764ZM260.09,67.57l.463.527a78.2,78.2,0,0,1-3.907-11.186C254.464,49.438,252.4,42.381,244.9,37c-10.523-7.546-23.855-7.787-36.611-7.391l-.855.027a57.376,57.376,0,0,1-8.881-.2c-.629,1.285-1.238,2.578-1.834,3.868.7-.06,1.386-.126,2.064-.191l.374-.036c13.17-1.273,27.052-1.914,39.28,5.307,7.641,4.51,10.84,10.684,14.545,17.832,1.042,2.012,2.1,4.052,3.286,6.111A48.386,48.386,0,0,1,260.09,67.57Zm-102.282.506c.77.026,1.523.021,2.261-.01,7.952-2.21,14.832-7.831,19.779-16.291a104.324,104.324,0,0,0,5.51-11.407q-2.154.38-4.356.851c-1.093.234-2.262.484-3.487.7-1.323,3.425-2.725,6.871-4.361,10.119C169.413,59.464,164.1,64.967,157.808,68.076Zm-3.674-.295c.948.12,1.888.209,2.82.26,6.515-3.006,12.009-8.572,15.842-16.179,1.593-3.161,2.966-6.517,4.259-9.858a31.709,31.709,0,0,1-7.379.5c-1.093,3.223-2.242,6.491-3.563,9.6A37.122,37.122,0,0,1,154.134,67.781Zm31.694-27.494a106.383,106.383,0,0,1-5.634,11.69c-4.665,7.976-11.034,13.459-18.4,15.976C175,66.717,183.079,57.484,186.9,51.689a95.4,95.4,0,0,0,6.654-12.442Q189.762,39.612,185.828,40.287ZM150.252,67.14c1.107.22,2.21.412,3.3.564A36.546,36.546,0,0,0,165.744,51.95c1.3-3.068,2.439-6.294,3.52-9.477a18.185,18.185,0,0,1-6.689-1.827q-.228.792-.458,1.589c-.948,3.286-1.927,6.682-3.046,9.934A42.784,42.784,0,0,1,150.252,67.14Zm-14.488-.252c.738.136,1.472.277,2.2.416q1.014.194,2.035.385.5-1.216.949-2.426l-.329-.089c-1.426-.386-2.873-.778-4.323-1.149Q136.033,65.485,135.764,66.888Zm10.843-.562c1.063.259,2.127.5,3.187.721a42.344,42.344,0,0,0,8.9-15.009c1.116-3.242,2.093-6.634,3.039-9.913q.242-.837.481-1.666a16.905,16.905,0,0,1-1.532-.922,25.06,25.06,0,0,1-4.523-4.1c-.807,2.916-1.522,5.968-2.255,9.1-.593,2.534-1.206,5.154-1.874,7.7A60.747,60.747,0,0,1,146.607,66.326Zm-15.91-.295c1.551.223,3.12.5,4.673.783q.271-1.413.535-2.888c-1.725-.438-3.455-.843-5.161-1.176Q130.717,64.415,130.7,66.031Zm10.777-1.04c1.567.423,3.149.846,4.731,1.237a60.116,60.116,0,0,0,5.437-14.1c.667-2.537,1.28-5.154,1.872-7.686.754-3.224,1.49-6.367,2.327-9.364-.5-.564-.989-1.137-1.473-1.7a46.106,46.106,0,0,0-4.288-4.58c-2,5.516-3.11,12.009-4.279,18.826-.267,1.557-.535,3.117-.814,4.669A75.563,75.563,0,0,1,141.474,64.991Zm-16.141.611a40.563,40.563,0,0,1,4.965.373q.019-1.623.047-3.3h0q-2.82-.544-5.52-.8C124.982,63.122,125.153,64.368,125.333,65.6Zm11.031-1.972c1.463.374,2.92.768,4.357,1.157.122.033.243.067.365.1a75.127,75.127,0,0,0,3.507-12.665c.279-1.551.547-3.111.814-4.666,1.131-6.6,2.3-13.393,4.353-19.039l-.239-.2a57.659,57.659,0,0,0-5.658-4.2,24.875,24.875,0,0,0-1.4,2.946c-2.74,6.826-3.643,16.212-4.516,25.29C137.568,56.247,137,60.056,136.364,63.63Zm-5.614-1.286c1.729.335,3.479.745,5.225,1.187.627-3.557,1.2-7.345,1.57-11.219.875-9.1,1.781-18.52,4.543-25.4a25.22,25.22,0,0,1,1.436-3.012,26.958,26.958,0,0,0-5.566-2.752,16.144,16.144,0,0,0-4.122,6.684C131.411,34.6,130.99,44.057,130.9,52.41c-.028,2.5-.069,5.017-.109,7.49Q130.77,61.133,130.75,62.344Zm122.659-2.61c.963,1.176,1.946,2.37,2.967,3.578q-.226-.381-.446-.764Q254.735,61.117,253.409,59.734Zm-128.64,1.733q2.733.254,5.582.8.018-1.178.038-2.374c.04-2.473.081-4.988.108-7.488.094-8.387.518-17.882,2.962-24.708a16.755,16.755,0,0,1,4.061-6.69q-4.871-1.5-8.057.787c-7.11,5.135-6.607,23.339-4.932,37.706Q124.645,60.484,124.769,61.467ZM251.093,56.9c1.367,1.266,2.66,2.575,3.865,3.917-.815-1.485-1.578-2.959-2.335-4.417-3.676-7.093-6.851-13.219-14.392-17.673-12.124-7.158-25.934-6.52-39.039-5.251l-.374.035c-.753.072-1.519.145-2.3.211q-.569,1.235-1.126,2.461a95.953,95.953,0,0,1,15.141-.821,54.538,54.538,0,0,1,21.2,4.736C240.064,43.911,245.352,49.907,251.093,56.9Zm-48.85-18.481a75.622,75.622,0,0,1,22.79,3.392,69.982,69.982,0,0,1,24.1,13.345c-5.106-6.1-10.114-11.287-17.56-14.695-12.013-5.5-24.844-5.309-36.369-3.847q-.493,1.082-.993,2.169Q198.3,38.421,202.243,38.421ZM169.8,42.135a31.51,31.51,0,0,0,7.42-.562q.557-1.443,1.1-2.875c.08-.21.159-.42.239-.631a18.939,18.939,0,0,1-6.7-1.992c-.5,1.443-.989,2.89-1.472,4.325Q170.1,41.264,169.8,42.135Zm-7.114-1.875a17.616,17.616,0,0,0,6.7,1.846q.312-.921.619-1.834c.489-1.456.984-2.924,1.494-4.389-.32-.177-.639-.365-.956-.567a28.011,28.011,0,0,1-4.946-4.224C164.534,34.01,163.61,37.083,162.687,40.26Zm16.283-2.15q-.139.366-.277.731-.5,1.317-1.011,2.648c1.115-.207,2.2-.439,3.236-.661q2.339-.5,4.627-.9.435-1.024.863-2.045A34.127,34.127,0,0,1,178.97,38.11Zm-22.685-3.133a25.278,25.278,0,0,0,4.62,4.228q.705.475,1.422.864c.935-3.221,1.875-6.338,2.963-9.3-.294-.3-.585-.61-.874-.914a41.493,41.493,0,0,0-4.671-4.422l-.037.076A58.939,58.939,0,0,0,156.285,34.977Zm30.581,2.849q-.423,1.01-.852,2.024,3.939-.667,7.734-1.023.5-1.077.985-2.15c-1.571.2-3.119.432-4.635.671C189.061,37.511,187.98,37.681,186.866,37.826Zm-7.756-.084a34.159,34.159,0,0,0,7.475-.279c.013-.03.025-.06.037-.089.511-1.215,1.025-2.44,1.552-3.665a20.3,20.3,0,0,1-6.682-2.017C180.661,33.7,179.877,35.728,179.11,37.742ZM171.991,35.7A18.443,18.443,0,0,0,178.7,37.7c.785-2.062,1.586-4.143,2.438-6.195-.243-.131-.484-.267-.725-.41a30.791,30.791,0,0,1-5.047-3.948C174.108,29.877,173.015,32.773,171.991,35.7Zm16.6-1.935c-.523,1.216-1.035,2.433-1.542,3.641,1.014-.138,2.012-.3,2.991-.448,1.51-.238,3.152-.483,4.9-.709l.078-.171q.525-1.151,1.057-2.312A39.012,39.012,0,0,1,188.587,33.76Zm-22.834-3.084a28.168,28.168,0,0,0,5.007,4.3c.291.184.582.359.875.522,1.036-2.952,2.143-5.879,3.42-8.638-.19-.175-.378-.351-.566-.526a40.016,40.016,0,0,0-4.793-4.014c-.516.833-.969,1.646-1.365,2.416A54.8,54.8,0,0,0,165.753,30.676Zm-15.524-2.283a45.379,45.379,0,0,1,4.443,4.723c.428.5.859,1.005,1.3,1.505a58.488,58.488,0,0,1,3.378-9.281c.023-.05.047-.1.071-.149a48.845,48.845,0,0,0-5.652-3.645,25.607,25.607,0,0,0-2.683,4.741Q150.631,27.313,150.229,28.393Zm38.525,4.98a39.737,39.737,0,0,0,7.5-.028c.609-1.322,1.23-2.646,1.873-3.961a22.93,22.93,0,0,1-6.675-1.908C190.5,29.408,189.612,31.389,188.754,33.373Zm-7.108-2.052a19.975,19.975,0,0,0,6.693,2c.874-2.025,1.782-4.048,2.756-6.022q-.41-.2-.817-.427a33.871,33.871,0,0,1-4.862-3.4A73.934,73.934,0,0,0,181.646,31.321Zm-6.1-4.553a30.916,30.916,0,0,0,5.076,3.984c.223.134.448.261.673.383a74.012,74.012,0,0,1,3.811-7.916l-.491-.4a40.672,40.672,0,0,0-4.7-3.46,37.362,37.362,0,0,0-2.958,4.6Q176.214,25.327,175.541,26.768Zm-15.617-1.7a41.321,41.321,0,0,1,4.782,4.513q.368.387.739.774a54.73,54.73,0,0,1,2.531-5.8c.4-.782.861-1.608,1.386-2.452a43.1,43.1,0,0,0-5.459-3.027A26.75,26.75,0,0,0,159.924,25.069Zm31.71,2.048a22.708,22.708,0,0,0,6.683,1.888c.965-1.959,1.978-3.9,3.073-5.769q-.625-.269-1.246-.582a38.1,38.1,0,0,1-4.371-2.673c-.584.847-1.106,1.663-1.568,2.429C193.29,23.927,192.439,25.505,191.634,27.117Zm-41.857.89.131.109q.383-1.022.81-1.991a26.141,26.141,0,0,1,2.693-4.77,25.265,25.265,0,0,0-5.375-2.161,15.251,15.251,0,0,0-3.974,4.577A57.52,57.52,0,0,1,149.777,28.007Zm35.84-4.885a33.81,33.81,0,0,0,4.855,3.4q.4.221.8.418c.81-1.623,1.667-3.211,2.589-4.74.466-.772.993-1.6,1.582-2.448l-.633-.44a45.428,45.428,0,0,0-4.432-2.836A40.912,40.912,0,0,0,185.617,23.122ZM169.91,21.984a40.363,40.363,0,0,1,4.851,4.06l.472.438c.436-.924.892-1.831,1.372-2.711a37.92,37.92,0,0,1,2.961-4.614l-.251-.14h0a39.78,39.78,0,0,0-5.049-2.371A28.249,28.249,0,0,0,169.91,21.984Zm-15.9-.761a49.222,49.222,0,0,1,5.591,3.6,27.561,27.561,0,0,1,3.9-5.93,24.666,24.666,0,0,0-5.227-1.688A16.534,16.534,0,0,0,154.007,21.223Zm-15.7-.372a27.767,27.767,0,0,1,5.418,2.706,15.837,15.837,0,0,1,3.812-4.485,11.662,11.662,0,0,0-6.034.051A9.228,9.228,0,0,0,138.305,20.851Zm57.7-1.2a37.656,37.656,0,0,0,4.323,2.644q.63.32,1.27.592.44-.741.9-1.468a52.913,52.913,0,0,1,3.6-5.049q-.476-.273-.943-.545c-1.369-.794-2.685-1.557-4.054-2.206A43.985,43.985,0,0,0,196,19.653Zm-15.844-.611a41.861,41.861,0,0,1,4.705,3.469l.439.356a41.327,41.327,0,0,1,4.711-6.579c-.251-.128-.5-.252-.763-.37A36.7,36.7,0,0,0,184.8,14.2,30.541,30.541,0,0,0,180.158,19.042Zm-15.972-.274a43.707,43.707,0,0,1,5.389,3,28.811,28.811,0,0,1,4.269-5.276,25.254,25.254,0,0,0-5.124-1.319A18.584,18.584,0,0,0,164.186,18.768Zm-15.73.128a26.245,26.245,0,0,1,5.194,2.135,17.141,17.141,0,0,1,4.048-3.925,13.482,13.482,0,0,0-6.289.353A11.345,11.345,0,0,0,148.456,18.9Zm42.2-2.723a46.375,46.375,0,0,1,4.385,2.814l.634.44a44.353,44.353,0,0,1,5.032-5.986c-.5-.224-1-.434-1.519-.624a36.748,36.748,0,0,0-3.61-1.119A33.46,33.46,0,0,0,190.654,16.173Zm-11.145,2.494c.1.056.2.112.3.17a31.093,31.093,0,0,1,4.528-4.775,26.323,26.323,0,0,0-5.09-.987,21.709,21.709,0,0,0-4.655,3.269A40.306,40.306,0,0,1,179.509,18.667ZM158.772,16.9a25.908,25.908,0,0,1,5.007,1.681,18.884,18.884,0,0,1,4.228-3.5,15.6,15.6,0,0,0-6.674.657A14.025,14.025,0,0,0,158.772,16.9Zm10.536-2.047a26.428,26.428,0,0,1,4.86,1.328,22.427,22.427,0,0,1,4.312-3.162A17.847,17.847,0,0,0,169.308,14.855ZM201.4,13.324c1.334.64,2.617,1.385,3.95,2.157l1,.578a47.066,47.066,0,0,1,5.3-5.5,24.717,24.717,0,0,0-2.524-.84h0q-1.293-.352-2.529-.6A37.763,37.763,0,0,0,201.4,13.324Zm-11.982,2.231c.3.135.585.277.871.424a34.179,34.179,0,0,1,4.78-4.406,28.152,28.152,0,0,0-5.031-.734,25,25,0,0,0-4.874,3.068A36.458,36.458,0,0,1,189.417,15.555Zm-9.529-2.8a28.106,28.106,0,0,1,4.808,1.006,25.645,25.645,0,0,1,4.48-2.954A20.547,20.547,0,0,0,179.888,12.758ZM196,11.393q1.609.424,3.327,1.049h0c.577.211,1.137.446,1.687.7a38.2,38.2,0,0,1,5.023-4.124,30.63,30.63,0,0,0-5.021-.5A28.886,28.886,0,0,0,196,11.393Zm-5.179-.91a29.369,29.369,0,0,1,4.669.779,29.716,29.716,0,0,1,4.56-2.744A24.261,24.261,0,0,0,190.818,10.483Zm18.41-1.152a26.067,26.067,0,0,1,2.759.93,43.266,43.266,0,0,1,5.3-3.915,33.818,33.818,0,0,0-5.034-.285,33.942,33.942,0,0,0-5.184,2.751q1.059.222,2.159.519ZM201.9,8.139a32.1,32.1,0,0,1,4.611.559,34.615,34.615,0,0,1,4.66-2.6A28.529,28.529,0,0,0,201.9,8.139Zm11.356-2.483a35.5,35.5,0,0,1,4.573.359,41.148,41.148,0,0,1,4.814-2.5A33.909,33.909,0,0,0,213.253,5.656Z" fill="#beff00"/>
    <path d="M190.376,133.651h39.952v-4.7H195.579V105.716H223.36v-3.978H195.579V78.866h33.913v-4.7H190.376Zm-30.1.9c19.326,0,24.715-8.679,24.715-17.448,0-5.334-2.509-9.312-6.6-11.21-3.995-1.989-10.685-2.984-16.631-3.8-5.11-.723-12.822-1.808-15.888-3.436-2.787-1.537-4.46-4.068-4.46-8.226,0-7.5,7.34-12.748,18.583-12.748,12.729,0,17.932,5.786,17.932,17.177h4.924c0-13.832-5.853-21.606-22.949-21.606-14.4,0-23.693,7.322-23.693,17.538,0,5.424,2.416,9.221,5.853,11.3,3.438,1.989,10.778,3.435,16.539,4.068,5.389.723,12.45,1.627,15.888,3.074s5.3,3.978,5.3,8.136c0,6.509-4.088,12.747-19.512,12.747-15.051,0-18.954-7.684-18.954-16.725h-4.924c0,10.578,4.367,21.155,23.878,21.155m-35.12-.9h5.3V74.165h-5.3Zm-36.142-3.8c-13.658,0-25.18-9.854-25.18-26.217,0-16,11.522-25.675,25.18-25.675s25.179,9.673,25.179,25.675c0,16.363-11.521,26.217-25.179,26.217m0,4.7c16.817,0,30.475-11.662,30.475-30.918,0-18.895-13.658-30.376-30.475-30.376S58.627,84.742,58.627,103.637c0,19.256,13.566,30.918,30.383,30.918m-86.873-.9H7.154V77.871h.093l39.767,55.78h6.225V74.165H48.222V126.78h-.186L10.592,74.165H2.137Z" fill="#fff"/>
  </g>
</svg>
